<svg xmlns="http://www.w3.org/2000/svg" viewBox="0 0 100 100">
  <style>
    @media (prefers-color-scheme: dark) {
      svg { fill: white; }
    }
  </style>
  <path d="M 89.443359 7.5820312 L 89.443359 35.794922 C 87.643163 32.691136 85.360025 30.394114 82.597656 28.904297 C 79.866324 27.383442 76.57721 26.623047 72.728516 26.623047 C 66.42783 26.623047 61.291205 29.137883 57.318359 34.166016 C 53.376551 39.194149 51.40625 45.806006 51.40625 54 C 51.40625 62.193995 53.376551 68.803899 57.318359 73.832031 C 61.291205 78.860164 66.42783 81.375 72.728516 81.375 C 76.57721 81.375 79.866324 80.630442 82.597656 79.140625 C 85.360025 77.61977 87.643163 75.306911 89.443359 72.203125 L 89.443359 80.023438 L 98.009766 80.023438 L 98.009766 7.5820312 L 89.443359 7.5820312 z M 22.027344 26.623047 C 15.633546 26.623047 10.698897 27.957697 7.2226562 30.626953 C 3.7464163 33.296208 2.0078125 37.0843 2.0078125 41.988281 C 2.0078125 46.023203 3.1879979 49.203411 5.546875 51.53125 C 7.9057521 53.828051 11.739402 55.534981 17.046875 56.652344 L 20.025391 57.351562 C 25.332864 58.499963 28.76256 59.694033 30.314453 60.935547 C 31.897384 62.177062 32.689453 63.963176 32.689453 66.291016 C 32.689453 68.805082 31.604291 70.759546 29.431641 72.15625 C 27.258991 73.521915 24.154062 74.205078 20.119141 74.205078 C 17.108469 74.205078 14.066889 73.801125 10.994141 72.994141 C 7.9213929 72.156119 4.8025801 70.914538 1.6367188 69.269531 L 1.6367188 78.115234 C 4.9888073 79.20156 8.1690156 80.009466 11.179688 80.537109 C 14.221398 81.095791 17.140186 81.375 19.933594 81.375 C 26.637771 81.375 31.899141 79.963117 35.716797 77.138672 C 39.565492 74.314227 41.488281 70.480577 41.488281 65.638672 C 41.488281 61.386485 40.201142 58.081534 37.625 55.722656 C 35.079895 53.332742 30.765061 51.485231 24.681641 50.181641 L 21.748047 49.529297 C 17.154444 48.505048 14.097027 47.433769 12.576172 46.316406 C 11.055317 45.168005 10.294922 43.601657 10.294922 41.615234 C 10.294922 39.008054 11.350363 37.051637 13.460938 35.748047 C 15.60255 34.444457 18.800548 33.792969 23.052734 33.792969 C 25.846141 33.792969 28.545164 34.103852 31.152344 34.724609 C 33.759524 35.345367 36.274359 36.276064 38.695312 37.517578 L 38.695312 29.417969 C 36.336435 28.486833 33.760204 27.787834 30.966797 27.322266 C 28.17339 26.856698 25.193206 26.623047 22.027344 26.623047 z M 74.824219 33.792969 C 79.355746 33.792969 82.92407 35.592968 85.53125 39.193359 C 88.13843 42.762713 89.443359 47.699315 89.443359 54 C 89.443359 60.300685 88.13843 65.251171 85.53125 68.851562 C 82.92407 72.420916 79.355746 74.205078 74.824219 74.205078 C 70.292692 74.205078 66.722414 72.420916 64.115234 68.851562 C 61.539092 65.251171 60.251953 60.300685 60.251953 54 C 60.251953 47.699315 61.539092 42.762713 64.115234 39.193359 C 66.722414 35.592968 70.292692 33.792969 74.824219 33.792969 z " />
</svg>
